<svg width="20" height="16" viewBox="0 0 20 16" fill="none" xmlns="http://www.w3.org/2000/svg">
<path d="M13.3711 15.5V13.8333C13.3711 12.9493 13.0199 12.1014 12.3948 11.4763C11.7697 10.8512 10.9218 10.5 10.0378 10.5H4.20443C3.32037 10.5 2.47253 10.8512 1.8474 11.4763C1.22228 12.1014 0.871094 12.9493 0.871094 13.8333V15.5M16.7044 4.66667V9.66667M19.2044 7.16667H14.2044M10.4544 3.83333C10.4544 5.67428 8.96204 7.16667 7.12109 7.16667C5.28014 7.16667 3.78776 5.67428 3.78776 3.83333C3.78776 1.99238 5.28014 0.5 7.12109 0.5C8.96204 0.5 10.4544 1.99238 10.4544 3.83333Z" stroke="#155569" stroke-linecap="round" stroke-linejoin="round"/>
</svg>
