<svg width="44" height="44" viewBox="0 0 44 44" fill="none" xmlns="http://www.w3.org/2000/svg">
<circle cx="22" cy="22" r="21" fill="white" fill-opacity="0.3" stroke="#DE0000" stroke-width="2"/>
<path d="M16 11C14.35 11 12.88 11.8094 11.77 13.0762C10.69 14.3431 10 16.0674 10 18.0381C10 19.9736 10.69 21.6979 11.77 23L22 35L32.23 23C33.31 21.7331 34 20.0088 34 18.0381C34 16.1026 33.31 14.3783 32.23 13.0762C31.15 11.8094 29.68 11 28 11C26.35 11 24.88 11.8094 23.77 13.0762C22.69 14.3431 22 16.0674 22 18.0381C22 16.1026 21.31 14.3783 20.23 13.0762C19.15 11.8094 17.68 11 16 11Z" fill="#DE0000"/>
</svg>
