<svg width="16" height="16" viewBox="0 0 16 16" fill="none" xmlns="http://www.w3.org/2000/svg">
<path d="M7.28988 1.36892C7.58841 0.793433 8.4116 0.793425 8.71014 1.36891L10.6128 5.03662C10.7327 5.26761 10.9574 5.42588 11.2152 5.46093L14.4996 5.90747C15.1366 5.99407 15.4164 6.75855 14.9859 7.23594L12.4526 10.0451C12.296 10.2187 12.2233 10.4521 12.2534 10.684L12.7404 14.4316C12.825 15.0819 12.134 15.5521 11.5601 15.2348L8.38703 13.4808C8.14618 13.3477 7.85381 13.3477 7.61297 13.4808L4.43996 15.2348C3.86599 15.5521 3.17507 15.0819 3.2596 14.4315L3.74672 10.684C3.77686 10.4522 3.70407 10.2187 3.54749 10.0451L1.0141 7.23595C0.583583 6.75856 0.863447 5.99407 1.50043 5.90747L4.78491 5.46093C5.04276 5.42588 5.26745 5.2676 5.38727 5.03661L7.28988 1.36892Z" fill="white"/>
</svg>
