<svg width="24" height="23" viewBox="0 0 24 23" fill="none" xmlns="http://www.w3.org/2000/svg">
<path d="M19 0L5 0C2.239 0 0 2.07907 0 4.64286L0 17.6429C0 20.2066 2.239 22.2857 5 22.2857H19C21.762 22.2857 24 20.2066 24 17.6429V4.64286C24 2.07907 21.762 0 19 0ZM8 17.6429H5V7.42857H8V17.6429ZM6.5 6.25114C5.534 6.25114 4.75 5.51757 4.75 4.61314C4.75 3.70871 5.534 2.97514 6.5 2.97514C7.466 2.97514 8.25 3.70871 8.25 4.61314C8.25 5.51757 7.467 6.25114 6.5 6.25114ZM20 17.6429H17V12.4391C17 9.31171 13 9.5485 13 12.4391V17.6429H10V7.42857H13V9.0675C14.396 6.66621 20 6.48886 20 11.3666V17.6429Z" fill="#155569"/>
</svg>
