<svg width="23" height="14" viewBox="0 0 23 14" fill="none" xmlns="http://www.w3.org/2000/svg">
<path d="M11.2271 2C15.6666 2 18.7614 5.012 20.1079 6.636C18.7988 8.473 15.704 12 11.2271 12C7.09697 12 3.81713 8.464 2.37064 6.593C3.76574 4.946 6.87177 2 11.2271 2ZM11.2271 0C4.15446 0 0 6.551 0 6.551C0 6.551 4.51795 14 11.2271 14C18.4531 14 22.4262 6.551 22.4262 6.551C22.4262 6.551 18.4166 0 11.2271 0ZM11.2131 3C9.14803 3 7.47541 4.791 7.47541 7C7.47541 9.209 9.14803 11 11.2131 11C13.2773 11 14.9508 9.209 14.9508 7C14.9508 4.791 13.2773 3 11.2131 3ZM11.2094 6.999C10.6824 7.563 9.82736 7.563 9.29941 6.999C8.77146 6.435 8.77146 5.519 9.29941 4.955C9.82643 4.391 10.6814 4.391 11.2094 4.955C11.7373 5.519 11.7373 6.434 11.2094 6.999Z" fill="#585858"/>
</svg>
