<svg width="13" height="13" viewBox="0 0 13 13" fill="none" xmlns="http://www.w3.org/2000/svg">
<path d="M3.74561 0C2.92061 0 2.18561 0.438416 1.63061 1.12463C1.09061 1.81085 0.745605 2.74487 0.745605 3.81232C0.745605 4.8607 1.09061 5.79472 1.63061 6.5L6.74561 13L11.8606 6.5C12.4006 5.81378 12.7456 4.87977 12.7456 3.81232C12.7456 2.76393 12.4006 1.82991 11.8606 1.12463C11.3206 0.438416 10.5856 0 9.74561 0C8.92061 0 8.18561 0.438416 7.63061 1.12463C7.09061 1.81085 6.74561 2.74487 6.74561 3.81232C6.74561 2.76393 6.40061 1.82991 5.86061 1.12463C5.32061 0.438416 4.58561 0 3.74561 0Z" fill="#DB2121"/>
</svg>
