<?xml version="1.0" encoding="UTF-8"?>
<svg id="_圖層_1" data-name="圖層 1" xmlns="http://www.w3.org/2000/svg" version="1.1" viewBox="0 0 1000 1000">
  <defs>
    <style>
      .cls-1 {
        fill: #000;
        stroke-width: 0px;
      }
    </style>
  </defs>
  <path class="cls-1" d="M289.78,281.08s9.36,22.72,31.41,22.72c42.1,0,55.47-97.04,140.88-97.04,71.03,0,86.35,91.69,86.35,91.69,0,0-38.71-74.04-88.22-72.85-83.54,2-96.24,98.24-136.34,98.24-34.08,0-34.08-42.77-34.08-42.77Z"/>
  <path class="cls-1" d="M556.02,121.38h-29.42c-2.24,0-4.3-1.08-5.61-2.91-1.27-1.82-1.58-4.16-.83-6.26l14.35-39.4-30.52,7.59c-3.68.89-7.36-1.32-8.29-4.97-.89-3.66,1.34-7.36,4.99-8.27l42.97-10.68c2.48-.64,5.02.19,6.74,2.05,1.69,1.88,2.2,4.54,1.34,6.92l-15.38,42.29h19.65c3.78,0,6.85,3.06,6.85,6.83s-3.06,6.83-6.85,6.83Z"/>
  <path class="cls-1" d="M603.98,165.49c-1.89,0-3.78-.79-5.13-2.32l-15.24-17.38c-1.41-1.62-2-3.8-1.55-5.9.41-2.12,1.82-3.89,3.78-4.8l31.93-14.95-17.65-11.96c-3.1-2.13-3.92-6.38-1.79-9.5,2.13-3.15,6.33-3.91,9.5-1.82l27.56,18.72c2.03,1.39,3.17,3.75,2.96,6.19-.21,2.46-1.69,4.61-3.92,5.66l-34.54,16.17,9.22,10.55c2.51,2.84,2.2,7.16-.62,9.65-1.31,1.14-2.89,1.69-4.51,1.69Z"/>
  <path class="cls-1" d="M656.93,250.37c15.9,0,23.88-14.52,24.22-15.14,1.79-3.34.55-7.47-2.79-9.26-3.3-1.77-7.47-.55-9.26,2.79-.03.09-4.47,7.95-12.18,7.95s-13.42-8.24-13.49-8.38c-2.03-3.18-6.3-4.13-9.39-2.13-3.2,2.01-4.16,6.23-2.17,9.43.38.6,9.39,14.74,25.05,14.74Z"/>
  <path class="cls-1" d="M741.09,923.23h-133.46c-.48-.26-.64-.85-1.17-1.03-.76-.28-76.73-27.35-73.84-84.95,1.96-38.71,22.05-53.78,55.29-78.76,24.05-18.1,53.98-40.6,84.4-79.34,82.37-104.9,19.03-327.27,16.27-336.66-1.15-3.98-4.57-6.29-8.68-6.78,12.98-10.45,26.52-26.33,34.49-51.17,13.93-43.42,4.23-71.38-6.33-87.17-13.11-19.58-32.07-27.68-44.32-28.66-23.12-1.75-30.45,18.34-34.54,29.18-.62,1.65-1.41,3.7-2.06,5.18-.72-.19-1.55-.43-2.27-.64-6.5-1.93-17.51-5.11-31.86.91-12.25,5.13-22.88,18.49-30.28,30.19-13.38-27.39-44.45-71.32-105.9-71.32-49.89,0-81.4,41.79-104.42,72.29-8.53,11.32-21.43,28.42-26.56,28.42-3.72,0-9.81-9.48-13.45-15.14-6.43-10.03-13.11-20.4-24.5-20.4h-.03c-11.22.02-18.2,10.98-20.51,14.57-8.88,13.88-28.39,61.07-12.9,90.3,2.28,4.32,6.02,8.95,11.35,12.9-.39,7.33-.14,28.06,13.56,41.05,7.96,7.56,17.24,9.88,25.02,10.33-15.2,74.65-31.2,208.11,27.34,282.64,30.48,38.81,60.69,61.45,85.02,79.62,33.58,25.15,53.88,40.36,55.84,78.96,2.73,54.54-64.29,82.35-72.36,85.5h-140.3c-5.64,0-10.25,4.61-10.25,10.25s4.61,10.25,10.25,10.25h481.17c5.68,0,10.25-4.61,10.25-10.25s-4.58-10.25-10.25-10.25ZM615.29,609.22c-9.92,0-17.97-8.05-17.97-17.97s8.05-17.97,17.97-17.97,17.97,8.05,17.97,17.97-8.05,17.97-17.97,17.97ZM689.75,458.18c-7.62.25-19.57.6-35.5.98.49-34.75-.56-81.95-1.06-102.26,2.2-.1,4.44-.17,6.67-.24,3.75-.1,7.5-.24,11.22-.45,4.18,16.21,13.37,55.4,18.67,101.96ZM293.46,371.32c-4.78-4.53-6.42-12.2-6.95-18.48,2.49.38,4.59,1.05,7.43,1.14,6.06.31,10.39-4.3,10.56-9.94.17-5.68-4.3-10.39-9.94-10.56-16.55-.48-20.64-8.26-22.02-10.8-10.15-19.23,4.71-58.16,12.08-69.72,1.55-2.39,2.72-3.75,3.06-4.49,2.13,2.1,5.4,7.17,7.47,10.39,7.05,10.94,15.79,24.57,30.69,24.57s27.52-16.14,42.94-36.57c21.54-28.57,48.38-64.13,88.05-64.13,72.94,0,93.72,74.32,94.58,77.47,1.14,4.2,4.78,7.23,9.08,7.57,4.23.17,8.4-2.05,10.18-6,5.75-12.78,19.06-34.82,30.24-39.5,7.67-3.2,12.76-1.7,18.24-.14,5.44,1.58,12.94,3.8,20.06-1.57,4.64-3.51,6.85-9.29,9.15-15.41,4.99-13.19,8.19-16.36,13.73-15.98,8.05.64,20.54,7.05,28.94,19.63,8.05,12.04,15.28,33.87,3.82,69.5-14.62,45.64-51.87,55.02-53.4,55.48-13.64,4.11-7.74,26.82-7.74,127.92,0,51.9,3.96,85.51-18.48,85.51-16.92,0-17.79-25.85-18.67-83.72-.91-60.32-3.8-112.23-3.8-112.23-.14-2.75-1.34-5.33-3.37-7.16-2.03-1.86-4.85-3.17-7.47-2.61-87.05,4.82-172.37,2.75-253.5-6.3-4.82-.52-9.53,2.48-10.94,7.23-.62,2.06-4.27,14.73-8.68,33.71-4.43.26-10.55-.27-15.34-4.78ZM391.11,588.36c15.62,70.15,81.51,120.7,82.2,121.18,4.51,3.44,5.4,9.84,2,14.35-2.03,2.68-5.09,4.09-8.19,4.09-2.17,0-4.34-.69-6.16-2.06-2.96-2.24-72.56-55.46-89.87-133.08-9.79-43.87-10.88-96.19-10.01-133.3-21.13-.48-36.6-.97-45.7-1.31,5.63-46.39,15.1-85.46,19.44-101.76,76.45,8.02,156.31,10.08,237.92,5.99.77,17.54,1.43,55.47,3.07,98.04-23.76.26-49.04.45-78.43.45-47.08,0-85.65-.44-115.72-.99-.83,36.1.19,86.92,9.46,128.41Z"/>
</svg>